<svg
      version="1.0"
      xmlns="http://www.w3.org/2000/svg"
      width="41pt"
      height="26pt"
      viewBox="0 0 41.000000 26.000000"
      preserveAspectRatio="xMidYMid meet"
    >
      <g transform="translate(0.000000,26.000000) scale(0.100000,-0.100000)" fill="#000000" stroke="none">
        <path d="M20 150 c0 -31 17 -39 38 -18 7 7 12 8 12 2 0 -13 41 -16 56 -3 8 7
14 7 19 -1 3 -5 14 -10 23 -9 12 0 11 3 -5 9 -25 10 -22 36 5 43 15 4 15 5 1
6 -9 0 -22 -5 -29 -13 -6 -8 -18 -12 -27 -9 -12 5 -12 7 -1 14 9 6 9 9 1 9
-21 0 -25 -21 -7 -36 18 -15 18 -15 1 -10 -10 3 -21 6 -23 6 -2 0 -4 10 -4 23
0 16 -3 18 -9 8 -6 -9 -11 -10 -15 -2 -14 23 -36 11 -36 -19z m30 0 c0 -11 -4
-20 -10 -20 -5 0 -10 9 -10 20 0 11 5 20 10 20 6 0 10 -9 10 -20z"/>
      </g>
    </svg>